PathFileType	4	(X/Y/Z)	Kaydara																																																																																																																									
DataRate	CameraRate	NumFrames	NumMarkers	Units	OrigDataRate	OrigDataStartFrame	OrigNumFrames																																																																																																																					
30	30	6	41	mm	30	33	115																																																																																																																					
Frame#	Time	PAIB_LFHD			PAIB_RFHD			PAIB_LBHD			PAIB_RBHD			PAIB_LFTShould			PAIB_RFTShould			PAIB_LRRShould			PAIB_RRRShould			PAIB_T10			PAIB_STRN			PAIB_TRUN			PAIB_LSHO			PAIB_LUPA			PAIB_LELB			PAIB_LFRM			PAIB_LWRA			PAIB_LWRB			PAIB_LFIN			PAIB_RSHO			PAIB_RUPA			PAIB_RELB			PAIB_RFRM			PAIB_RWRA			PAIB_RWRB			PAIB_RFIN			PAIB_LFWT			PAIB_RFWT			PAIB_LBWT			PAIB_RBWT			PAIB_LTHI			PAIB_LKNE			PAIB_LSHN			PAIB_LANK			PAIB_LHEE			PAIB_LTOE			PAIB_RTHI			PAIB_RKNE			PAIB_RSHN			PAIB_RANK			PAIB_RHEE			PAIB_RTOE		
		X1	Y1	Z1	X2	Y2	Z2	X3	Y3	Z3	X4	Y4	Z4	X5	Y5	Z5	X6	Y6	Z6	X7	Y7	Z7	X8	Y8	Z8	X9	Y9	Z9	X10	Y10	Z10	X11	Y11	Z11	X12	Y12	Z12	X13	Y13	Z13	X14	Y14	Z14	X15	Y15	Z15	X16	Y16	Z16	X17	Y17	Z17	X18	Y18	Z18	X19	Y19	Z19	X20	Y20	Z20	X21	Y21	Z21	X22	Y22	Z22	X23	Y23	Z23	X24	Y24	Z24	X25	Y25	Z25	X26	Y26	Z26	X27	Y27	Z27	X28	Y28	Z28	X29	Y29	Z29	X30	Y30	Z30	X31	Y31	Z31	X32	Y32	Z32	X33	Y33	Z33	X34	Y34	Z34	X35	Y35	Z35	X36	Y36	Z36	X37	Y37	Z37	X38	Y38	Z38	X39	Y39	Z39	X40	Y40	Z40	X41	Y41	Z41
																																																																																																																												
15	1.067	262.10135	1694.16061	-1964.77097	76.47574	1694.59351	-1976.24176	278.73676	1667.52792	-2091.40503	75.86929	1678.75	-2092.81448	233.91243	1433.22464	-1993.423	111.48892	1432.91977	-2002.55249	250.65945	1503.74725	-2134.05594	99.20154	1505.27359	-2134.59351	175.06374	1348.20679	-2219.11774	179.19088	1366.97922	-1961.29913	176.007	1265.04555	-1940.7782	369.46308	1446.30066	-2068.18604	431.42338	1221.31706	-2098.99933	444.92035	1143.80135	-2143.88412	463.22636	1029.21944	-2095.84641	406.02661	923.37769	-2002.97607	442.4559	901.04332	-2067.80655	455.37361	867.96585	-2004.01855	-13.31164	1440.06653	-2065.58029	-82.71954	1277.42805	-2133.03223	-111.05336	1165.30716	-2151.85242	-132.74633	1031.58432	-2114.98306	-76.94098	932.58698	-2013.54492	-143.45423	916.65466	-2060.11978	-135.56455	883.97644	-1993.59665	283.93309	978.94081	-1995.59998	45.85764	979.42627	-1998.45566	224.29476	1018.68408	-2214.3399	80.29396	1029.39331	-2210.37415	272.78517	747.75658	-2201.819	320.821	502.39502	-2105.93094	300.47636	312.90787	-2098.83667	302.41125	130.79654	-2191.7543	243.94199	120.06449	-2234.59473	292.8245	74.99866	-2012.07825	24.14671	724.5491	-2193.49503	6.87613	485.46009	-2097.64847	61.93426	296.99949	-2099.07013	30.09686	112.36302	-2210.12711	91.20151	114.32711	-2247.69974	41.07711	76.45893	-2015.35629
16	1.1	261.7429	1694.44794	-1965.23636	76.10902	1694.70978	-1976.53473	278.36777	1667.86743	-2092.11258	75.34271	1678.69278	-2093.11523	233.47345	1433.00079	-1993.36563	111.32336	1432.80899	-2002.41364	250.28475	1503.79593	-2134.26147	98.77065	1505.11963	-2134.50409	174.70036	1348.13934	-2218.94897	179.01413	1366.8866	-1961.26953	175.97622	1264.95422	-1940.77209	369.16092	1446.43494	-2068.31985	430.87601	1221.05713	-2098.68332	444.60201	1143.91739	-2144.11697	463.0788	1029.37881	-2095.99854	406.24641	923.68881	-2002.82639	442.38323	901.21445	-2067.79663	455.52074	868.24677	-2004.13223	-13.64076	1439.84573	-2065.50949	-82.93509	1277.16286	-2132.80884	-111.23447	1164.95567	-2151.67145	-132.83307	1031.2706	-2114.83643	-76.55916	932.38304	-2013.29102	-143.4407	916.24771	-2059.90845	-135.52686	883.64197	-1993.43903	284.03717	979.01245	-1995.56427	46.03025	979.42207	-1998.10059	223.95727	1018.7413	-2214.22882	80.00753	1029.33388	-2210.05737	272.6466	747.78107	-2201.81488	320.79819	502.45255	-2106.13983	300.49774	313.00045	-2098.93066	302.41058	130.85182	-2191.62476	243.90865	120.07681	-2234.58176	292.8768	74.99523	-2012.07642	23.94938	724.50523	-2193.17795	6.89996	485.37697	-2097.3291	62.0176	297.06553	-2098.83179	30.08387	112.29189	-2210.02472	91.15699	114.38334	-2247.75299	41.08334	76.48759	-2015.3714
17	1.133	261.28345	1694.60815	-1965.52292	75.53784	1694.69635	-1976.76132	277.81523	1667.7153	-2092.18414	74.89284	1678.66486	-2093.40927	233.44507	1432.91779	-1993.32687	111.13875	1432.64633	-2002.32925	249.8716	1503.79059	-2134.32129	98.31849	1504.9913	-2134.45084	174.36396	1348.04047	-2218.86475	178.84506	1366.81946	-1961.30341	175.81749	1264.90692	-1940.78339	368.86669	1446.46805	-2068.43384	430.76786	1221.1776	-2098.73962	444.47403	1143.97034	-2144.05579	463.05267	1029.48372	-2095.9581	406.22719	923.70056	-2002.78198	442.48699	901.31523	-2067.72568	455.54462	868.29819	-2003.84506	-14.05106	1439.70108	-2065.53177	-83.15124	1276.84204	-2132.57172	-111.39691	1164.64447	-2151.35696	-132.89725	1030.94391	-2114.53354	-76.603	932.04185	-2013.00766	-143.47188	915.92873	-2059.59579	-135.55417	883.29285	-1993.08884	283.97964	978.94844	-1995.68848	46.00932	979.30649	-1997.86911	223.68698	1018.74176	-2214.19891	79.76033	1029.2942	-2209.84406	272.54234	747.82143	-2201.96167	320.74371	502.45098	-2106.30081	300.4821	313.00882	-2099.02695	302.34743	130.93846	-2191.68442	243.84068	120.10228	-2234.57413	292.86816	74.99905	-2012.01813	23.77553	724.40582	-2192.82242	6.97801	485.30544	-2096.87424	62.10319	296.99875	-2098.55804	30.15865	112.35632	-2209.97238	91.17389	114.3769	-2247.65732	41.11074	76.44969	-2015.33539
18	1.167	260.66404	1694.62387	-1965.59341	75.12436	1694.71161	-1976.84372	277.33456	1667.75024	-2092.27966	74.38572	1678.59695	-2093.50327	233.0167	1432.96341	-1993.45764	110.76423	1432.51938	-2002.37686	249.50853	1503.79425	-2134.33945	97.98918	1504.90204	-2134.44092	174.08161	1348.00461	-2218.88489	178.63073	1366.72409	-1961.40533	175.75985	1264.77745	-1940.91141	368.51273	1446.52237	-2068.43887	430.59921	1221.21132	-2098.54218	444.45831	1144.07524	-2143.88519	463.11451	1029.61342	-2095.78964	406.28136	923.70453	-2002.73636	442.65686	901.38916	-2067.60712	455.8223	868.49861	-2003.93677	-14.30499	1439.50302	-2065.27206	-83.35139	1276.52084	-2132.28165	-111.50249	1164.3454	-2151.01517	-132.94792	1030.68283	-2114.09637	-76.53453	931.77849	-2012.57706	-143.41405	915.65063	-2059.07852	-135.48937	883.16071	-1992.62634	284.18648	979.12849	-1995.83176	46.04354	979.13666	-1997.73666	223.48955	1018.72139	-2214.24698	79.55577	1029.17435	-2209.60556	272.32479	747.84035	-2202.09702	320.7465	502.47189	-2106.38977	300.53726	313.06002	-2099.04709	302.3366	130.99696	-2191.7067	243.84556	120.05625	-2234.58374	292.89433	74.96891	-2012.03873	23.72872	724.35425	-2192.52106	7.00767	485.25658	-2096.71249	62.11668	297.05942	-2098.1604	30.20024	112.37173	-2209.96094	91.20025	114.40795	-2247.63367	41.15526	76.43715	-2015.32089
19	1.2	260.10965	1694.6521	-1965.54062	74.52709	1694.60114	-1976.84753	277.00216	1668.40302	-2092.9599	73.88595	1678.4523	-2093.45383	232.74626	1433.00339	-1993.44757	110.4535	1432.37091	-2002.45102	249.14087	1503.7561	-2134.18549	97.60072	1504.88983	-2134.43283	173.79072	1348.06381	-2218.92868	178.46087	1366.64078	-1961.45187	175.60095	1264.65683	-1940.96451	368.1414	1446.64902	-2068.35907	430.41103	1221.43112	-2098.40363	444.49501	1144.35623	-2143.82599	463.16628	1029.85031	-2095.6601	406.46217	923.98026	-2002.61017	442.89055	901.64482	-2067.56073	455.94765	868.74016	-2003.80814	-14.59893	1439.42612	-2065.35156	-83.54365	1276.36658	-2132.12234	-111.65655	1164.16969	-2150.7962	-132.98155	1030.49156	-2113.68896	-76.59081	931.7363	-2012.08405	-143.32316	915.56038	-2058.57498	-135.34218	883.11226	-1992.05048	284.45698	979.20609	-1995.94971	46.28128	979.03702	-1997.41714	223.25617	1018.59779	-2214.31808	79.35735	1029.04968	-2209.31564	272.10745	747.80708	-2202.09961	320.78251	502.55852	-2106.2883	300.52387	313.0105	-2098.97003	302.32197	130.82721	-2191.78497	243.78283	120.09153	-2234.59152	292.92446	74.99397	-2012.06635	23.63065	724.34494	-2192.41745	7.08332	485.2169	-2096.78619	62.26886	297.00573	-2098.55789	30.13333	112.32962	-2210.00641	91.15602	114.33098	-2247.68768	41.15355	76.45379	-2015.33035
20	1.233	259.60588	1694.61319	-1965.3743	74.02625	1694.51599	-1976.52176	276.15435	1667.62177	-2091.95633	73.291	1678.36288	-2093.11966	232.69859	1432.87643	-1993.30704	110.24721	1432.31339	-2002.32803	248.83448	1503.85223	-2134.27246	97.26067	1504.75174	-2134.2453	173.53926	1348.03986	-2218.89282	178.23677	1366.59119	-1961.39755	175.55332	1264.62868	-1940.9816	367.89173	1446.85547	-2068.40683	430.45334	1221.79718	-2098.65341	444.4606	1144.56718	-2143.84384	463.29224	1030.149	-2095.66956	406.64806	924.21288	-2002.61246	443.05111	901.91002	-2067.48703	456.14624	869.03976	-2003.68225	-14.85578	1439.23004	-2065.2533	-83.84196	1276.20049	-2132.07703	-111.9104	1163.94531	-2150.68665	-133.07181	1030.29778	-2113.42422	-76.49281	931.89491	-2011.62964	-143.22413	915.47737	-2058.10196	-135.16304	883.14095	-1991.52039	284.36893	979.12735	-1996.16287	46.38577	979.01497	-1997.28729	223.10072	1018.55606	-2214.39819	79.1651	1029.04701	-2209.21082	271.98614	747.71103	-2202.0694	320.73437	502.64179	-2106.05057	300.53585	312.97144	-2098.79135	302.37919	130.93399	-2191.62491	243.86003	120.10616	-2234.50546	292.93264	74.98745	-2012.043	23.30158	724.46205	-2192.43896	7.09197	485.23655	-2096.93878	62.3744	296.91628	-2098.99643	30.13752	112.33232	-2210.04044	91.1345	114.32184	-2247.79541	41.17136	76.48007	-2015.39063
